<svg xmlns="http://www.w3.org/2000/svg" width="300" height="150" fill="none" viewBox="0 0 300 150"><path fill="#000" d="M49.935 58.05V90H47.64V74.7H27.48V90H25.185V58.05H27.48V72.63H47.64V58.05H49.935ZM59.1758 97.92C59.6558 97.95 60.0758 97.95 60.4358 97.92C60.8258 97.92 61.1108 97.86 61.2908 97.74C61.5608 97.65 61.8308 97.41 62.1008 97.02C62.4008 96.66 62.7908 95.925 63.2708 94.815C63.7508 93.735 64.4258 92.13 65.2958 90L54.8558 66.6H57.2408L66.5108 87.615L75.1058 66.6H77.4008L64.5758 97.38C64.3958 97.86 64.1408 98.28 63.8108 98.64C63.5108 99.03 63.1358 99.33 62.6858 99.54C62.2358 99.78 61.6958 99.915 61.0658 99.945C60.7958 99.975 60.5108 99.99 60.2108 99.99C59.9108 100.02 59.5658 100.02 59.1758 99.99V97.92ZM93.3326 90.45C91.3226 90.45 89.5226 89.925 87.9326 88.875C86.3726 87.795 85.1126 86.49 84.1526 84.96V99.585H81.9026V66.6H83.9726V71.28C84.9326 69.78 86.2076 68.565 87.7976 67.635C89.3876 66.675 91.0676 66.195 92.8376 66.195C94.4876 66.195 95.9876 66.54 97.3376 67.23C98.6876 67.89 99.8576 68.805 100.848 69.975C101.868 71.115 102.648 72.405 103.188 73.845C103.758 75.285 104.043 76.785 104.043 78.345C104.043 80.505 103.593 82.515 102.693 84.375C101.793 86.205 100.533 87.675 98.9126 88.785C97.3226 89.895 95.4626 90.45 93.3326 90.45ZM92.7926 88.425C94.1726 88.425 95.4026 88.14 96.4826 87.57C97.5926 87 98.5376 86.235 99.3176 85.275C100.098 84.315 100.698 83.235 101.118 82.035C101.538 80.835 101.748 79.605 101.748 78.345C101.748 76.995 101.508 75.72 101.028 74.52C100.548 73.29 99.8726 72.21 99.0026 71.28C98.1626 70.35 97.1726 69.615 96.0326 69.075C94.9226 68.505 93.7076 68.22 92.3876 68.22C91.5776 68.22 90.7076 68.385 89.7776 68.715C88.8776 69.045 88.0076 69.51 87.1676 70.11C86.3576 70.71 85.6826 71.4 85.1426 72.18C84.6026 72.93 84.2726 73.71 84.1526 74.52V82.215C84.6926 83.355 85.3826 84.405 86.2226 85.365C87.0926 86.295 88.0976 87.045 89.2376 87.615C90.3776 88.155 91.5626 88.425 92.7926 88.425ZM119.401 90.45C117.751 90.45 116.221 90.135 114.811 89.505C113.401 88.845 112.171 87.96 111.121 86.85C110.101 85.71 109.291 84.405 108.691 82.935C108.121 81.435 107.836 79.86 107.836 78.21C107.836 75.99 108.331 73.98 109.321 72.18C110.311 70.38 111.676 68.94 113.416 67.86C115.156 66.75 117.106 66.195 119.266 66.195C121.486 66.195 123.451 66.75 125.161 67.86C126.871 68.97 128.221 70.44 129.211 72.27C130.231 74.07 130.741 76.05 130.741 78.21C130.741 78.39 130.741 78.57 130.741 78.75C130.741 78.93 130.726 79.08 130.696 79.2H110.176C110.296 80.97 110.791 82.575 111.661 84.015C112.531 85.455 113.641 86.595 114.991 87.435C116.371 88.245 117.871 88.65 119.491 88.65C121.111 88.65 122.641 88.23 124.081 87.39C125.521 86.55 126.526 85.47 127.096 84.15L129.076 84.69C128.626 85.8 127.906 86.79 126.916 87.66C125.956 88.53 124.816 89.22 123.496 89.73C122.206 90.21 120.841 90.45 119.401 90.45ZM110.086 77.445H128.581C128.461 75.615 127.981 73.995 127.141 72.585C126.301 71.175 125.191 70.065 123.811 69.255C122.461 68.445 120.961 68.04 119.311 68.04C117.661 68.04 116.161 68.445 114.811 69.255C113.461 70.065 112.366 71.175 111.526 72.585C110.686 73.995 110.206 75.615 110.086 77.445ZM147.744 90V58.05H158.589C161.979 58.05 164.799 58.77 167.049 60.21C169.329 61.62 171.039 63.54 172.179 65.97C173.319 68.37 173.889 71.04 173.889 73.98C173.889 77.22 173.259 80.04 171.999 82.44C170.769 84.84 168.999 86.7 166.689 88.02C164.409 89.34 161.709 90 158.589 90H147.744ZM170.739 73.98C170.739 71.43 170.259 69.165 169.299 67.185C168.369 65.205 167.004 63.66 165.204 62.55C163.404 61.41 161.199 60.84 158.589 60.84H150.894V87.21H158.589C161.229 87.21 163.449 86.625 165.249 85.455C167.049 84.285 168.414 82.71 169.344 80.73C170.274 78.72 170.739 76.47 170.739 73.98ZM179.282 90V66.555H182.342V90H179.282ZM179.282 61.65V57.15H182.342V61.65H179.282ZM198.262 90.27C196.672 90.27 195.202 89.955 193.852 89.325C192.532 88.665 191.392 87.78 190.432 86.67C189.472 85.53 188.722 84.24 188.182 82.8C187.672 81.36 187.417 79.86 187.417 78.3C187.417 76.65 187.672 75.09 188.182 73.62C188.722 72.15 189.472 70.86 190.432 69.75C191.422 68.61 192.577 67.725 193.897 67.095C195.217 66.435 196.687 66.105 198.307 66.105C200.257 66.105 201.952 66.585 203.392 67.545C204.862 68.505 206.092 69.72 207.082 71.19V66.51H210.592V89.73C210.592 91.95 210.052 93.825 208.972 95.355C207.922 96.885 206.482 98.04 204.652 98.82C202.852 99.63 200.842 100.035 198.622 100.035C195.982 100.035 193.822 99.57 192.142 98.64C190.462 97.71 189.067 96.45 187.957 94.86L190.252 92.835C191.182 94.215 192.382 95.25 193.852 95.94C195.352 96.63 196.942 96.975 198.622 96.975C200.062 96.975 201.382 96.705 202.582 96.165C203.812 95.655 204.787 94.86 205.507 93.78C206.257 92.7 206.632 91.35 206.632 89.73V85.59C205.762 87.03 204.562 88.17 203.032 89.01C201.532 89.85 199.942 90.27 198.262 90.27ZM199.477 87.03C200.317 87.03 201.127 86.88 201.907 86.58C202.687 86.28 203.407 85.89 204.067 85.41C204.727 84.9 205.282 84.33 205.732 83.7C206.182 83.07 206.482 82.425 206.632 81.765V75.015C206.212 73.935 205.612 72.99 204.832 72.18C204.052 71.34 203.167 70.695 202.177 70.245C201.187 69.765 200.167 69.525 199.117 69.525C197.917 69.525 196.837 69.78 195.877 70.29C194.947 70.8 194.152 71.49 193.492 72.36C192.832 73.2 192.322 74.145 191.962 75.195C191.602 76.245 191.422 77.31 191.422 78.39C191.422 79.56 191.632 80.67 192.052 81.72C192.472 82.74 193.042 83.655 193.762 84.465C194.482 85.275 195.337 85.905 196.327 86.355C197.317 86.805 198.367 87.03 199.477 87.03ZM216.983 90V66.51H220.943V90H216.983ZM216.983 62.1V57.15H220.943V62.1H216.983ZM240.224 88.785C239.804 88.995 239.279 89.22 238.649 89.46C238.019 89.7 237.299 89.91 236.489 90.09C235.709 90.27 234.899 90.36 234.059 90.36C233.039 90.36 232.094 90.18 231.224 89.82C230.354 89.46 229.649 88.89 229.109 88.11C228.599 87.3 228.344 86.265 228.344 85.005V70.29H225.239V66.465H228.344V58.725H233.294V66.465H238.424V70.29H233.294V83.43C233.354 84.24 233.609 84.84 234.059 85.23C234.539 85.62 235.124 85.815 235.814 85.815C236.504 85.815 237.164 85.695 237.794 85.455C238.424 85.215 238.889 85.02 239.189 84.87L240.224 88.785ZM241.943 83.115C241.943 81.615 242.363 80.31 243.203 79.2C244.073 78.06 245.258 77.19 246.758 76.59C248.258 75.96 249.998 75.645 251.978 75.645C253.028 75.645 254.093 75.72 255.173 75.87C256.283 76.02 257.258 76.26 258.098 76.59V75.105C258.098 73.455 257.603 72.165 256.613 71.235C255.623 70.305 254.198 69.84 252.338 69.84C251.018 69.84 249.773 70.08 248.603 70.56C247.433 71.01 246.188 71.655 244.868 72.495L243.203 69.165C244.763 68.115 246.323 67.335 247.883 66.825C249.473 66.315 251.138 66.06 252.878 66.06C256.028 66.06 258.503 66.9 260.303 68.58C262.133 70.23 263.048 72.585 263.048 75.645V84.42C263.048 84.99 263.138 85.395 263.318 85.635C263.528 85.875 263.873 86.01 264.353 86.04V90C263.903 90.09 263.498 90.15 263.138 90.18C262.778 90.21 262.478 90.225 262.238 90.225C261.188 90.225 260.393 89.97 259.853 89.46C259.313 88.95 258.998 88.35 258.908 87.66L258.773 86.31C257.753 87.63 256.448 88.65 254.858 89.37C253.268 90.09 251.663 90.45 250.043 90.45C248.483 90.45 247.088 90.135 245.858 89.505C244.628 88.845 243.668 87.96 242.978 86.85C242.288 85.74 241.943 84.495 241.943 83.115ZM256.928 84.555C257.288 84.165 257.573 83.775 257.783 83.385C257.993 82.995 258.098 82.65 258.098 82.35V79.65C257.258 79.32 256.373 79.08 255.443 78.93C254.513 78.75 253.598 78.66 252.698 78.66C250.898 78.66 249.428 79.02 248.288 79.74C247.178 80.46 246.623 81.45 246.623 82.71C246.623 83.4 246.803 84.06 247.163 84.69C247.553 85.32 248.093 85.83 248.783 86.22C249.503 86.61 250.388 86.805 251.438 86.805C252.518 86.805 253.553 86.595 254.543 86.175C255.533 85.755 256.328 85.215 256.928 84.555ZM269.098 57.15H274.048V83.205C274.048 84.405 274.228 85.17 274.588 85.5C274.948 85.83 275.398 85.995 275.938 85.995C276.538 85.995 277.093 85.935 277.603 85.815C278.143 85.695 278.608 85.545 278.998 85.365L279.718 89.28C278.998 89.58 278.143 89.835 277.153 90.045C276.163 90.255 275.278 90.36 274.498 90.36C272.818 90.36 271.498 89.895 270.538 88.965C269.578 88.005 269.098 86.685 269.098 85.005V57.15Z"/><path stroke="#000" stroke-width=".188" d="M124 53.4122C136.191 54.4438 146.601 46.285 146.601 34"/><path stroke="#000" stroke-width=".188" d="M147.07 36.3444L146.601 34.0938L146.038 36.3444"/></svg>