<svg width="200" height="200" viewBox="0 0 200 200" fill="none" xmlns="http://www.w3.org/2000/svg">
<g clip-path="url(#clip0_1176_201)">
<rect width="200" height="200" fill="white"/>
<path d="M70.3406 52.5V88H66.8906V71.4H45.8406V88H42.3406V52.5H45.8406V68.3H66.8906V52.5H70.3406ZM80.0547 96C80.5214 96.0333 80.9714 96.05 81.4047 96.05C81.838 96.0833 82.1547 96.0667 82.3547 96C82.7547 95.9333 83.138 95.7 83.5047 95.3C83.8714 94.9 84.3047 94.1333 84.8047 93C85.3047 91.8667 86.0047 90.2 86.9047 88L75.5547 61.95H79.1547L88.7047 84.5L97.5047 61.95H100.905L87.4047 95.55C87.1714 96.1833 86.8214 96.7667 86.3547 97.3C85.888 97.8667 85.3047 98.3 84.6047 98.6C83.938 98.9333 83.1047 99.1167 82.1047 99.15C81.8047 99.1833 81.488 99.1833 81.1547 99.15C80.8547 99.15 80.488 99.1167 80.0547 99.05V96ZM118.954 88.5C116.788 88.5 114.838 87.9333 113.104 86.8C111.404 85.6667 110.054 84.2667 109.054 82.6V98.65H105.654V61.95H108.704V67C109.738 65.3667 111.121 64.05 112.854 63.05C114.588 62.0167 116.438 61.5 118.404 61.5C120.204 61.5 121.854 61.8833 123.354 62.65C124.854 63.3833 126.154 64.3833 127.254 65.65C128.354 66.9167 129.204 68.3667 129.804 70C130.438 71.6 130.754 73.2667 130.754 75C130.754 77.4333 130.254 79.6833 129.254 81.75C128.288 83.7833 126.921 85.4167 125.154 86.65C123.388 87.8833 121.321 88.5 118.954 88.5ZM118.004 85.5C119.438 85.5 120.721 85.2167 121.854 84.65C122.988 84.05 123.954 83.25 124.754 82.25C125.588 81.25 126.221 80.1333 126.654 78.9C127.088 77.6333 127.304 76.3333 127.304 75C127.304 73.6 127.054 72.2667 126.554 71C126.088 69.7333 125.404 68.6167 124.504 67.65C123.604 66.6833 122.571 65.9167 121.404 65.35C120.238 64.7833 118.971 64.5 117.604 64.5C116.738 64.5 115.838 64.6667 114.904 65C113.971 65.3333 113.071 65.8167 112.204 66.45C111.371 67.05 110.671 67.7333 110.104 68.5C109.538 69.2667 109.188 70.0833 109.054 70.95V78.95C109.588 80.1833 110.304 81.3 111.204 82.3C112.104 83.2667 113.138 84.05 114.304 84.65C115.504 85.2167 116.738 85.5 118.004 85.5ZM147.764 88.5C145.897 88.5 144.164 88.15 142.564 87.45C140.964 86.7167 139.58 85.7333 138.414 84.5C137.247 83.2333 136.33 81.7833 135.664 80.15C135.03 78.5167 134.714 76.7667 134.714 74.9C134.714 72.4667 135.264 70.2333 136.364 68.2C137.497 66.1667 139.047 64.55 141.014 63.35C142.98 62.1167 145.214 61.5 147.714 61.5C150.28 61.5 152.514 62.1167 154.414 63.35C156.347 64.5833 157.864 66.2167 158.964 68.25C160.064 70.25 160.614 72.45 160.614 74.85C160.614 75.1167 160.614 75.3833 160.614 75.65C160.614 75.8833 160.597 76.0667 160.564 76.2H138.264C138.43 78.0667 138.947 79.7333 139.814 81.2C140.714 82.6333 141.864 83.7833 143.264 84.65C144.697 85.4833 146.247 85.9 147.914 85.9C149.614 85.9 151.214 85.4667 152.714 84.6C154.247 83.7333 155.314 82.6 155.914 81.2L158.864 82C158.33 83.2333 157.514 84.35 156.414 85.35C155.314 86.35 154.014 87.1333 152.514 87.7C151.047 88.2333 149.464 88.5 147.764 88.5ZM138.164 73.75H157.414C157.28 71.85 156.764 70.1833 155.864 68.75C154.997 67.3167 153.847 66.2 152.414 65.4C151.014 64.5667 149.464 64.15 147.764 64.15C146.064 64.15 144.514 64.5667 143.114 65.4C141.714 66.2 140.564 67.3333 139.664 68.8C138.797 70.2333 138.297 71.8833 138.164 73.75ZM51.232 147V118.1L38.382 140.55H36.182L23.282 118.1V147H19.782V111.5H23.382L37.232 135.8L51.182 111.5H54.732V147H51.232ZM73.7891 147.5C71.9224 147.5 70.1891 147.15 68.5891 146.45C66.9891 145.717 65.6057 144.733 64.4391 143.5C63.2724 142.233 62.3557 140.783 61.6891 139.15C61.0557 137.517 60.7391 135.767 60.7391 133.9C60.7391 131.467 61.2891 129.233 62.3891 127.2C63.5224 125.167 65.0724 123.55 67.0391 122.35C69.0057 121.117 71.2391 120.5 73.7391 120.5C76.3057 120.5 78.5391 121.117 80.4391 122.35C82.3724 123.583 83.8891 125.217 84.9891 127.25C86.0891 129.25 86.6391 131.45 86.6391 133.85C86.6391 134.117 86.6391 134.383 86.6391 134.65C86.6391 134.883 86.6224 135.067 86.5891 135.2H64.2891C64.4557 137.067 64.9724 138.733 65.8391 140.2C66.7391 141.633 67.8891 142.783 69.2891 143.65C70.7224 144.483 72.2724 144.9 73.9391 144.9C75.6391 144.9 77.2391 144.467 78.7391 143.6C80.2724 142.733 81.3391 141.6 81.9391 140.2L84.8891 141C84.3557 142.233 83.5391 143.35 82.4391 144.35C81.3391 145.35 80.0391 146.133 78.5391 146.7C77.0724 147.233 75.4891 147.5 73.7891 147.5ZM64.1891 132.75H83.4391C83.3057 130.85 82.7891 129.183 81.8891 127.75C81.0224 126.317 79.8724 125.2 78.4391 124.4C77.0391 123.567 75.4891 123.15 73.7891 123.15C72.0891 123.15 70.5391 123.567 69.1391 124.4C67.7391 125.2 66.5891 126.333 65.6891 127.8C64.8224 129.233 64.3224 130.883 64.1891 132.75ZM104.141 145.75C103.874 145.85 103.457 146.033 102.891 146.3C102.324 146.567 101.641 146.8 100.841 147C100.041 147.2 99.174 147.3 98.2406 147.3C97.274 147.3 96.3573 147.117 95.4906 146.75C94.6573 146.383 93.9906 145.833 93.4906 145.1C92.9906 144.333 92.7406 143.4 92.7406 142.3V123.65H89.1406V120.95H92.7406V112.15H96.1406V120.95H102.141V123.65H96.1406V141.35C96.2073 142.283 96.5406 142.983 97.1406 143.45C97.774 143.917 98.4906 144.15 99.2906 144.15C100.224 144.15 101.074 144 101.841 143.7C102.607 143.367 103.074 143.133 103.241 143L104.141 145.75ZM121.389 123.95C119.122 124.017 117.122 124.65 115.389 125.85C113.689 127.05 112.489 128.7 111.789 130.8V147H108.389V120.95H111.589V127.2C112.489 125.367 113.672 123.883 115.139 122.75C116.639 121.617 118.222 120.983 119.889 120.85C120.222 120.817 120.505 120.8 120.739 120.8C121.005 120.8 121.222 120.817 121.389 120.85V123.95ZM125.918 147V120.95H129.318V147H125.918ZM125.918 115.5V110.5H129.318V115.5H125.918ZM148.107 147.5C146.207 147.5 144.457 147.15 142.857 146.45C141.29 145.717 139.907 144.717 138.707 143.45C137.54 142.183 136.623 140.733 135.957 139.1C135.323 137.467 135.007 135.733 135.007 133.9C135.007 131.433 135.557 129.183 136.657 127.15C137.757 125.117 139.29 123.5 141.257 122.3C143.223 121.1 145.49 120.5 148.057 120.5C150.49 120.5 152.64 121.067 154.507 122.2C156.373 123.3 157.757 124.8 158.657 126.7L155.357 127.75C154.623 126.417 153.59 125.383 152.257 124.65C150.957 123.883 149.507 123.5 147.907 123.5C146.173 123.5 144.59 123.95 143.157 124.85C141.723 125.75 140.573 126.983 139.707 128.55C138.873 130.117 138.457 131.9 138.457 133.9C138.457 135.867 138.89 137.65 139.757 139.25C140.623 140.85 141.773 142.133 143.207 143.1C144.64 144.033 146.223 144.5 147.957 144.5C149.09 144.5 150.173 144.3 151.207 143.9C152.273 143.5 153.19 142.967 153.957 142.3C154.757 141.6 155.29 140.85 155.557 140.05L158.907 141.05C158.44 142.283 157.657 143.4 156.557 144.4C155.49 145.367 154.223 146.133 152.757 146.7C151.323 147.233 149.773 147.5 148.107 147.5ZM172.798 147.5C170.665 147.5 168.681 147.15 166.848 146.45C165.015 145.75 163.431 144.683 162.098 143.25L163.498 140.85C164.965 142.217 166.431 143.217 167.898 143.85C169.398 144.45 170.981 144.75 172.648 144.75C174.681 144.75 176.331 144.35 177.598 143.55C178.865 142.717 179.498 141.533 179.498 140C179.498 138.967 179.181 138.183 178.548 137.65C177.948 137.083 177.065 136.633 175.898 136.3C174.765 135.933 173.398 135.55 171.798 135.15C169.998 134.65 168.481 134.133 167.248 133.6C166.048 133.033 165.131 132.333 164.498 131.5C163.898 130.633 163.598 129.517 163.598 128.15C163.598 126.45 164.015 125.05 164.848 123.95C165.715 122.817 166.881 121.967 168.348 121.4C169.848 120.8 171.515 120.5 173.348 120.5C175.348 120.5 177.115 120.817 178.648 121.45C180.181 122.083 181.431 122.967 182.398 124.1L180.748 126.4C179.815 125.333 178.698 124.55 177.398 124.05C176.131 123.517 174.715 123.25 173.148 123.25C172.081 123.25 171.065 123.4 170.098 123.7C169.131 123.967 168.331 124.433 167.698 125.1C167.098 125.733 166.798 126.617 166.798 127.75C166.798 128.683 167.031 129.417 167.498 129.95C167.965 130.45 168.665 130.883 169.598 131.25C170.531 131.583 171.681 131.95 173.048 132.35C175.015 132.883 176.731 133.433 178.198 134C179.665 134.533 180.798 135.233 181.598 136.1C182.398 136.967 182.798 138.183 182.798 139.75C182.798 142.183 181.881 144.083 180.048 145.45C178.215 146.817 175.798 147.5 172.798 147.5Z" fill="black"/>
</g>
<defs>
<clipPath id="clip0_1176_201">
<rect width="200" height="200" fill="white"/>
</clipPath>
</defs>
</svg>
